<svg version="1.1" viewBox="0.0 0.0 72.0 72.0" fill="none" stroke="none" stroke-linecap="square" stroke-miterlimit="10" xmlns:xlink="http://www.w3.org/1999/xlink" xmlns="http://www.w3.org/2000/svg"><clipPath id="p.0"><path d="m0 0l72.0 0l0 72.0l-72.0 0l0 -72.0z" clip-rule="nonzero"/></clipPath><g clip-path="url(#p.0)"><path fill="#000000" fill-opacity="0.0" d="m0 0l72.0 0l0 72.0l-72.0 0z" fill-rule="evenodd"/><path fill="#000000" fill-opacity="0.0" d="m1.3123359E-6 3.178565l72.0 0l0 72.0l-72.0 0z" fill-rule="evenodd"/><path fill="#ffffff" d="m41.42991 10.491065l0 10.546876l-8.125 0l0 42.140625l-13.703123 0l0 -42.140625l-8.109376 0l0 -10.546876l29.9375 0zm16.901443 0l0 35.203125q0 7.921875 -0.171875 10.1875q-0.15625 2.25 -1.484375 4.078125q-1.3125 1.8125 -3.578125 2.515625q-2.25 0.703125 -6.8125 0.703125l-6.875 0l0 -9.203125q1.25 0.09375 1.796875 0.09375q1.46875 0 2.3125 -0.71875q0.84375 -0.71875 0.96875 -1.75q0.140625 -1.046875 0.140625 -4.046875l0 -37.0625l13.703125 0z" fill-rule="nonzero"/></g></svg>